<?xml version="1.0" encoding="UTF-8"?>
<svg xmlns="http://www.w3.org/2000/svg" xmlns:xlink="http://www.w3.org/1999/xlink" viewBox="0 0 250 150">
  <defs>
    <style>
      .cls-1 {
        fill: #2c0800;
      }

      .cls-2 {
        fill: #4e4e4e;
      }

      .cls-3 {
        fill: #fff;
      }

      .cls-4 {
        fill: #930d0d;
      }

      .cls-5 {
        fill: url(#New_Pattern);
      }

      .cls-6, .cls-7 {
        fill: none;
      }

      .cls-7 {
        stroke: #b23d3d;
        stroke-miterlimit: 10;
        stroke-width: .25px;
      }

      .cls-8 {
        fill: #27262c;
      }

      .cls-9 {
        fill: #bac0b4;
      }

      .cls-10 {
        fill: #debb67;
      }

      .cls-11 {
        fill: #f46227;
      }
    </style>
    <pattern id="New_Pattern" data-name="New Pattern" x="0" y="0" width="76.36" height="56.14" patternUnits="userSpaceOnUse" viewBox="0 0 76.36 56.14">
      <g>
        <rect class="cls-6" y="0" width="76.36" height="56.14"/>
        <g>
          <path class="cls-7" d="M14.12,4.4c.66.27,1.35-1.8,3.33-2.52,1.38-.5,2.89-.17,3.33-.08,1.17.26,1.35.63,2.38.63,1.02,0,2.28-.38,2.28-.38-.24.68-1.16,3.02-3.63,4.35-.31.17-2.2,1.16-4.41.81-1.26-.2-1.89-.71-2.03-.83-.53-.45-.81-.98-.95-1.3-.18-.13-.41-.34-.6-.65-.21-.35-.24-.63-.3-.63-.07,0-.14.4-.17,2.09.47.87.94,1.74,1.41,2.61.28.23.7.54,1.26.84,1.2.65,1.89.63,2.81,1.03.98.43,1.53,1.05,2.38,2,1.44,1.62,2.05,3.26,2.25,3.88.37,1.1.23,1.3.58,2.45.48,1.59,1.2,2.78,1.74,3.54-.63-.23-1.55-.58-2.62-1.09-3.43-1.61-5.53-2.59-6.92-4.73-1.17-1.8-1.48-3.85-1.77-5.77-.15-1-.2-1.84-.22-2.43-.23-.33-.46-.65-.68-.98l-.21,6.58,2.61,4.95c1.7.46,2.86,1.21,3.53,1.73.43.33.86.67,1.32,1.25.82,1.05,1.12,2.14,1.45,3.38.28,1.04.19,1.12.4,1.89.39,1.42,1.04,2.48,1.54,3.16-.75-.18-1.8-.47-2.99-.97-1.85-.77-2.85-1.19-3.72-2.15-1.52-1.67-1.68-3.91-1.81-5.74-.07-1-.03-1.82.02-2.38-.78-1.42-1.57-2.85-2.35-4.27v2.9c.29.42.73,1.05,1.27,1.81.51.73.84,1.19.78,1.25-.07.06-.53-.44-1.4-1-.45-.29-.84-.49-1.11-.61-.05-.23-.12-.57-.13-.99-.02-.51.05-.87.09-1.16.06-.45.11-1.1.04-1.96-.1.39-.2.78-.3,1.17-.06.86-.21,1.86-.54,2.94-.1.31-.2.61-.31.89-.24.31-.49.62-.77.94-.6.71-1.21,1.33-1.8,1.88.6-.26,1.2-.51,1.79-.77l-.6,1.07c-.95,1.47-1.95,2.11-2.73,2.41-.51.2-.85.23-1.73.43-1.37.31-2.45.69-3.19.97.21-.29.45-.66.66-1.09.28-.58.44-1.12.54-1.56.2-1.49.71-2.53,1.06-3.13,1.09-1.84,3.02-3.32,4.68-4.01.28-.11.72-.28,1.25-.65.91-.63,1.44-1.43,1.76-1.99.04-2.42.09-4.84.13-7.26l-.98,1.79c.03.45.04,1.1-.03,1.88-.1,1.14-.32,2.1-.45,2.5-.89,2.84-4.85,4.35-5.38,4.56-2.27.87-4.34.83-5.67.67.61-.56,1.47-1.43,2.29-2.65,1.5-2.23,1.33-3.33,2.83-4.71.74-.68,1.48-1.06,2.88-1.78,1.15-.59,2.17-.99,2.89-1.24.27-.29.55-.63.84-1.04.29-.41.51-.79.7-1.14.03-1.81.06-3.62.09-5.42.05-.27.2-.47.34-.47.23,0,.37.43.38.47.11.34,0,.6-.05.89-.15.74.03,1.36.2,1.92.18.61.27.92.45.99Z"/>
          <path class="cls-7" d="M13.14,20.91c-.2.31-.38.73-.28,1.15.17.68.99.9,2.43,1.65.54.28,1.23.68,2,1.2-.67-.93-1.17-1.7-1.5-2.22-.69-1.09-1.04-1.74-1.73-1.88-.37-.08-.71.01-.93.1Z"/>
          <path class="cls-7" d="M13.44,22.84c-.29-.44-.48-.52-.6-.5-.14.02-.19.17-.47.4-.2.17-.35.24-.45.3-.43.27-.66.82-.83,1.2-.3.69-.65,1.48-1.05,2.4.84-.67,1.53-1.16,2-1.49.81-.56,1.36-.89,1.47-1.51.06-.32-.01-.62-.08-.81Z"/>
          <path class="cls-7" d="M13.54,23.99c-.12.06-.55.3-.7.79-.21.68.28,1.28.36,1.37.25.29.47.33,1.55.8.43.18.77.34,1,.45-.15-.55-.3-1-.43-1.33-.57-1.52-.97-1.8-1.19-1.91-.23-.12-.45-.16-.6-.17Z"/>
          <path class="cls-7" d="M13.54,26.42c-.19.43-.5,1-1,1.58-.62.73-1.29,1.19-1.75,1.45,0-.48.09-1.41.65-2.4.44-.78.99-1.28,1.34-1.55"/>
          <path class="cls-7" d="M13.42,19.32c.06.06.39.43.33.94-.03.24-.14.42-.21.52-.12-.03-.3-.06-.5,0-.53.15-.61.72-1.14,1.03-.18.11-.47.22-.93.18"/>
          <path class="cls-7" d="M13.39,26.73c.27.43.56.87.88,1.32.27.38.54.74.8,1.08-.36-.18-.72-.35-1.07-.53-.05.16-.1.35-.13.58-.04.43.03.79.1,1.02-.23-.21-.47-.41-.7-.62-.26.32-.5.56-.68.73-.43.42-.98.85-1,.83,0,0,0,0,0,0,0-.82.33-1.45.33-1.45.39-.74.87-1.38.87-1.38h0c.08-.3.17-.6.25-.9"/>
        </g>
        <path class="cls-7" d="M42.34,41.46c.07-.25.31-.91.96-1.39.35-.26.7-.37.93-.43.61.29,2.23.95,4.23.55,3.21-.63,4.68-3.43,4.87-3.8-.68.58-2.04,1.57-4.01,1.94-.94.18-1.77.16-2.41.1-.36.11-.73.23-1.11.36-.77.26-1.51.54-2.22.82.98-1.23,1.96-2.46,2.94-3.69l1.67-.92c-.02-.73.04-1.69.39-2.74.94-2.9,3.36-4.54,3.75-4.8,1.01-.67,1.58-.76,2.61-1.69.76-.7,1.26-1.4,1.58-1.9.04.45.09,1.11.11,1.9.03,1.45.06,2.57-.14,3.53-.38,1.78-1.67,3.64-3.59,4.66-2.02,1.07-3.97.82-4.65.7-.32.07-.74.19-1.18.42-.31.16-.57.34-.78.5.12-.17.28-.43.39-.77.14-.46.12-.85.09-1.08.48-.44,1.49-1.47,1.99-3.14.38-1.27.3-2.37.21-2.99.35-.47.7-.95,1.05-1.42.4-.08,1.21-.3,1.85-.99.82-.89.83-1.99.85-2.77.03-1.84-.78-3.24-1.24-3.91-.26.35-.61.85-.96,1.49-.75,1.35-1.61,2.88-1.26,4.58.07.35.22.81.54,1.33-.31.44-.62.88-.93,1.32-.41-.91-.8-1.63-1.08-2.12-.54-.94-.83-1.31-1.3-2.18-.44-.82-.74-1.53-.91-1.99-.27.42-.66,1.05-1.1,1.82-.8,1.41-1.21,2.11-1.42,2.73-.11.3-1.01,2.98.2,5.42.19.39.55,1.09,1.33,1.69.61.47,1.22.67,1.61.76.06.29.11.68.08,1.15-.04.56-.18,1.01-.31,1.32-1.02,1.34-2.03,2.67-3.05,4.01l-.93-2.78c.41-.18,1.15-.57,1.51-1.37.42-.91.09-1.79-.37-3.02-.31-.82-1.06-2.79-3.09-4.35-.64-.49-1.22-.81-1.63-1.01-.18.26-.42.66-.63,1.18-.79,2-.23,3.86.17,5.19.46,1.54.81,2.72,1.94,3.3.64.33,1.3.34,1.73.3.21.57.43,1.14.64,1.71l-1.36-1.58-2.03-1.41c-.43-.36-1.09-.86-2-1.26-.88-.39-1.43-.45-2.33-.72-.74-.22-1.78-.61-2.98-1.32.17.9.53,2.28,1.35,3.78.52.95.92,1.68,1.76,2.36.09.07,2.18,1.71,4.17,1.28.26-.06.59-.17,2.03-.53.39-.1.7-.18.9-.23.11.04.3.14.47.34.17.2.24.4.28.51-.2.27-.4.54-.6.82-.11.14-.09.33.03.43.1.08.26.09.38,0Z"/>
        <path class="cls-7" d="M66.76,34.24c-.08-.98-.17-1.97-.25-2.95-.09-.15-.27-.24-.45-.22-.19.02-.35.16-.39.35.1.95.21,1.9.31,2.85l-.72,1.31c-2.03-.45-3.47-.06-4.17.2-1.1.4-1.88,1.02-3.12,2.01-.94.75-1.66,1.44-2.15,1.93.25.17,2.82,1.79,5.85.65,3.06-1.16,3.89-4.15,3.97-4.43.15-.41.3-.82.46-1.23-.03,1.38,0,2.82.09,4.33.03.46.06.91.1,1.35-.31.33-.63.65-.94.98-.53,0-1.26.05-2.12.21-.79.15-1.6.3-2.42.74-.49.27-1.56.95-2.36,2.51,1.04.51,1.95.7,2.55.78.91.12,1.54.2,2.22-.12.77-.36,1.16-1.04,1.61-1.81.4-.68.62-1.31.74-1.75.21-.29.43-.58.64-.87-.21,1.01-.5,2.13-.93,3.34-.32.92-.68,1.75-1.03,2.5-.1.06-.27.13-.48.16-.36.05-.64-.06-.77-.12-.02-.35-.32-.63-.66-.63-.36,0-.67.3-.67.69l.91.44-.21.75-.81.03c-.12-.21-.33-.35-.56-.35-.2,0-.35.11-.39.15-.04.06-.1.18-.11.34-.02.17.02.3.04.37.03.11.04.27-.04.35-.11.12-.31.03-.38.12-.05.06-.05.19.16.51l.47-.02c-.21.43-.18.89.07,1.15.06.06.17.16.36.21.06,0,.22-.02.37-.13.21-.16.25-.38.26-.43.12.17.25.35.37.52-.11.18-.11.41,0,.6.17.29.49.29.51.29.03,0,.18-.02.29-.15.12-.14.1-.31.1-.33.31.08.63,0,.82-.23.25-.28.26-.73,0-1.05.03,0,.39.13.62-.06.24-.2.26-.7-.09-1.07,0-.09-.04-.25-.14-.42-.08-.13-.16-.22-.23-.27.11-.23.23-.46.34-.69.04.13.11.31.24.5.17.25.38.4.51.48.04-.08.19-.42.07-.83-.13-.45-.5-.66-.57-.7.34-.59.71-1.31,1.03-2.15.39-1.05.61-2.01.73-2.79.13.97.36,2.04.75,3.18.1.28.2.55.31.81-.07.99-.14,1.97-.21,2.96-.21-.02-.58-.01-.97.18-.14.07-.25.15-.34.22-.13.59.05,1.06.27,1.12.22.06.62-.28.78-.89.01.64.02,1.28.03,1.92-.11.05-.27.13-.42.26-.19.17-.16.23-.28.31-.3.19-.62-.06-.88.13-.06.05-.14.13-.18.31,0,.07-.02.27.11.47.03.04.12.18.23.21.22.06.56-.21.8-.72l.4-.02c-.01.3-.1.42-.19.48-.12.08-.25.04-.32.13-.07.1-.02.26.04.38-.23.18-.33.44-.25.61.09.19.38.23.54.24.18.02.33,0,.42-.04.04.36.21.57.33.56.11,0,.21-.2.25-.46.26-.09.37-.33.32-.45-.05-.12-.3-.2-.54-.08-.03-.44-.06-.87-.08-1.31l.4-.02c.03.08.09.22.23.35.17.16.35.21.43.23.15.03.3-.02.39-.14.1-.13.11-.31.02-.45-.06-.07-.17-.2-.36-.27-.41-.15-.78.08-.82.11,0-.4.03-1.01.08-1.75.06-.81.1-1.11.14-1.69.03-.52.04-1.26-.02-2.17.47.56.94,1.12,1.4,1.68-.13-.05-.38-.12-.57-.01-.28.17-.24.63-.21,1.03.04.44.06.76.31.9.34.19.81-.14.84-.15-.27.3-.25.77.02,1.03.27.26.71.26.98.02.26-.23.23-.59.23-.63.02.06.11.3.37.45.29.17.57.09.63.08-.29.39-.23.91.07,1.16.24.2.66.27.95.03.21-.19.28-.5.18-.8.36.05.65-.07.71-.26.07-.22-.18-.46-.24-.52-.48-.46-1.3-.27-1.46-.23.4.03.77-.19.89-.53.11-.3.02-.65-.18-.82-.32-.28-1.03-.19-1.56.41-.02-.04-.06-.12-.12-.19-.28-.31-.7-.17-.98-.44-.07-.07-.15-.18-.19-.4.36,0,.72,0,1.08,0,.39.31.93.24,1.2-.1.23-.3.25-.81-.09-1.06-.27-.21-.7-.19-.98.08.01-.15,0-.42-.17-.58-.21-.18-.56-.08-1.08.07-.25.07-.6.2-1.01.42-.37-.45-.88-1.17-1.24-2.18-.43-1.2-.44-2.25-.4-2.87.26.23.51.45.77.68.22,1.5.99,2.76,2.09,3.09.87.26,1.91-.08,2.48-.27.54-.18.96-.39,1.24-.56-.57-.67-1-1.17-1.23-1.44-.98-1.15-1.17-1.39-1.61-1.58-.6-.27-1.2-.25-1.63-.23-.58.02-1.05.14-1.37.24-.28-.25-.56-.49-.84-.74-.05-.1-.13-.25-.2-.44-.29-.72-.32-1.35-.34-1.88-.04-1.56.11-3.25.14-3.62.12.07.27.17.42.32.27.28.4.57.47.76,0,.3.05,2.71,1.94,4.1,1.83,1.34,4.63,1.17,6.64-.6-.46-.61-1.16-1.42-2.14-2.24-.74-.61-1.5-1.24-2.65-1.68-.65-.25-1.89-.61-3.56-.43-.2-.12-.63-.41-.88-.97-.13-.28-.18-.55-.19-.73Z"/>
        <g>
          <path class="cls-7" d="M3.44,44.74l-2.52-.13-.1.74,8.28.87,1.59,1.2c-.54-.11-1.48-.22-2.5.14-1.89.68-2.75,2.52-2.96,2.99-.57,1.22-.34,1.77-1.11,3.17-.39.72-.82,1.25-1.12,1.59,1.98.28,3.62.29,4.76.24,1.76-.08,2.66-.13,3.72-.65.37-.18,2.62-1.28,3.04-3.5.17-.92.15-2.68-.92-3.18-.77-.36-1.67.12-1.91.25-.06-.29-.18-.68-.43-1.09-.53-.87-1.3-1.27-1.65-1.42,1.3-.47,2.61-.93,3.91-1.4l3.52,2.22c-.86,1.09-1,2.05-1.03,2.52-.16,2.85,2.98,4.77,3.43,5.03.93.55,1.85.8,3.09,1.14,1.16.32,2.15.47,2.86.56.03-.48.06-1.17.05-2.01-.03-2.07-.05-3.16-.46-4.25-.64-1.7-2.4-3.77-4.76-3.9-1.22-.07-2.19.4-2.69.7-1.22-.71-2.44-1.42-3.67-2.13.22-.09.59-.24,1.05-.38.93-.29,2.05-.51,5.4-.62.53-.02,1.29-.04,2.2-.04-.1,1.15.28,1.77.46,2,1.07,1.44,3.58,1.03,4.54.88.5-.08,1.37-.23,2.3-.78.73-.43.89-.75,1.62-1.22.5-.32,1.27-.71,2.36-.92-.4-.35-.97-.85-1.68-1.42-1.28-1.04-1.93-1.56-2.57-1.86-.66-.31-1.89-.73-3.77-.42.34-.66.72-1.6.92-2.77.33-1.93-.01-3.53-.28-4.42-.3.26-.76.61-1.4.91-.82.38-1.41.43-2.04.57-.64.14-2.1.46-3.14,1.38-.94.83-1.88,2.45-1.45,4.12.26,1.01.92,1.66,1.27,1.95-.42.48-.83.96-1.25,1.44l-3.63.46c-.05-.52-.1-1.05-.15-1.57-.78,1.18-1.63,1.53-2.04,1.65-2.25.67-5.21-1.33-6.12-3.53-.27-.65-.34-1.29-.97-2.21-.57-.84-1.25-1.39-1.75-1.73.42-.05,1.03-.15,1.75-.36.79-.23,1.28-.47,1.65-.62,1.33-.55,2.57-.57,3.35-.59.5-.01,4.61-.04,6.29,2.67.66,1.07,1.22,3,.28,3.89-.68.65-1.83.45-2.17.37.02.3.03.78-.17,1.29-.99,2.6-5.77,2.86-6.75,2.91-.91.05-2.29.03-3.96-.37.82-.49,1.35-1.3,1.28-2.06-.11-1.11-1.55-2.19-3.29-1.81-.55.27-.9.67-.85,1.03.03.21.19.44.32.43.12,0,.15-.2.37-.48.13-.18.27-.3.36-.37.2-.07.55-.15,1-.11.46.04.8.21.99.31.51.44.7,1.14.47,1.74-.3.8-1.16.97-1.2.97Z"/>
          <path class="cls-7" d="M19.97,41.62c.23.14.55.3.96.39.75.18,1.38.04,1.71-.05-.04.13-.09.3-.11.5-.02.22-.01.41,0,.55-.69-.03-1.38-.06-2.07-.09-.51-.02-1.01-.04-1.52-.05.34-.42.68-.83,1.03-1.25Z"/>
        </g>
        <path class="cls-7" d="M39.3,21.19c.52.84,1.05,1.67,1.57,2.51.15.09.35.09.5-.01.16-.11.23-.3.19-.49-.53-.8-1.05-1.59-1.58-2.39l.04-1.49c2.01-.53,3.11-1.54,3.61-2.08.79-.86,1.2-1.77,1.86-3.21.5-1.1.82-2.04,1.02-2.7-.3-.03-3.33-.3-5.49,2.1-2.19,2.43-1.56,5.47-1.5,5.75.05.43.1.87.16,1.3-.61-1.24-1.29-2.51-2.06-3.81-.23-.39-.47-.78-.7-1.16.13-.43.26-.87.39-1.3.47-.25,1.1-.62,1.79-1.16.63-.49,1.29-1,1.81-1.77.31-.46.95-1.56.95-3.32-1.15.02-2.05.27-2.63.48-.87.31-1.46.53-1.92,1.12-.52.67-.56,1.45-.6,2.35-.04.79.05,1.45.14,1.89-.06.35-.11.71-.17,1.06-.27-.99-.53-2.13-.7-3.39-.13-.97-.2-1.87-.23-2.69.06-.1.17-.24.35-.36.3-.21.6-.24.74-.25.18.3.57.41.87.26.32-.16.46-.58.28-.92l-1.01.03-.16-.76.7-.4c.2.13.45.16.65.05.18-.09.26-.26.28-.31,0-.07,0-.2-.05-.35-.06-.16-.15-.26-.21-.31-.08-.09-.16-.22-.12-.34.05-.15.26-.17.28-.28.01-.07-.04-.19-.38-.38l-.41.23c-.01-.48-.24-.87-.59-1-.08-.03-.22-.06-.41-.02-.05.03-.19.12-.27.29-.12.23-.05.46-.03.51-.19-.1-.38-.2-.57-.29.01-.21-.09-.42-.27-.53-.28-.18-.57-.03-.59-.03-.03.02-.15.1-.19.27-.04.18.05.32.07.34-.31.07-.56.29-.63.58-.09.36.1.76.48.93-.03,0-.41.06-.53.34-.12.29.09.74.57.91.05.08.15.21.31.31.13.08.25.12.33.14,0,.26,0,.51,0,.77-.09-.1-.24-.22-.44-.33-.27-.14-.52-.19-.67-.2,0,.09.02.46.32.77.33.34.74.36.82.36-.04.68-.03,1.49.07,2.39.13,1.11.38,2.06.63,2.82-.55-.8-1.25-1.66-2.13-2.49-.22-.21-.43-.4-.65-.58-.39-.91-.78-1.82-1.17-2.73.19-.08.52-.25.78-.6.09-.12.16-.24.2-.35-.16-.58-.53-.92-.75-.87-.22.05-.43.53-.29,1.15-.3-.57-.61-1.13-.91-1.7.08-.09.18-.24.26-.43.09-.24.04-.27.11-.4.18-.31.58-.23.72-.51.04-.07.06-.18.02-.36-.02-.06-.11-.25-.31-.36-.05-.03-.19-.1-.3-.08-.22.04-.4.45-.38,1.01l-.35.2c-.13-.27-.1-.42-.05-.51.07-.13.2-.15.22-.26.02-.12-.1-.24-.21-.32.12-.26.09-.54-.06-.65-.17-.13-.44-.03-.59.03-.17.06-.29.16-.36.22-.2-.3-.45-.41-.55-.35-.09.06-.1.28,0,.52-.19.2-.18.46-.08.54.1.08.36.05.52-.18.22.38.45.75.67,1.13l-.35.2c-.06-.06-.18-.15-.36-.2-.22-.06-.41-.03-.49,0-.15.04-.26.16-.29.3-.03.16.04.32.19.41.09.04.24.09.44.07.43-.05.66-.43.68-.48.18.36.44.91.73,1.6.32.75.42,1.04.65,1.57.21.47.54,1.14,1.01,1.92-.67-.28-1.35-.57-2.02-.85.14-.01.39-.06.51-.25.17-.28-.08-.67-.29-1.01-.23-.38-.4-.65-.69-.66-.39-.01-.66.49-.67.52.1-.39-.12-.8-.49-.91-.36-.11-.75.1-.88.43-.13.33.06.63.09.67-.05-.04-.24-.22-.54-.24-.33-.02-.55.18-.59.22.08-.48-.21-.91-.6-1-.3-.07-.72.06-.85.41-.1.26-.02.58.21.79-.34.12-.54.36-.51.56.03.23.37.33.45.35.64.19,1.28-.36,1.4-.46-.37.16-.59.52-.55.88.04.31.27.59.53.65.41.1,1-.3,1.2-1.08.04.03.1.08.19.11.39.15.7-.17,1.07-.05.09.03.22.09.35.27-.32.17-.64.33-.95.5-.49-.09-.94.22-1.02.63-.07.37.15.83.57.91.34.06.71-.15.84-.52.06.14.19.38.41.43.27.06.54-.18.93-.56.19-.18.44-.46.7-.84.54.23,1.32.64,2.1,1.37.93.87,1.42,1.8,1.67,2.37-.33-.08-.66-.17-.99-.25-.88-1.24-2.15-2-3.27-1.8-.9.17-1.66.94-2.09,1.37-.4.4-.67.79-.85,1.07.82.33,1.43.59,1.75.72,1.4.57,1.68.7,2.15.67.66-.04,1.18-.33,1.56-.54.51-.28.87-.6,1.1-.84.36.09.72.18,1.08.28.09.06.23.17.38.3.58.51.9,1.05,1.16,1.51.75,1.37,1.39,2.94,1.53,3.28-.14,0-.32-.03-.52-.09-.37-.12-.62-.32-.76-.46-.14-.26-1.29-2.38-3.6-2.75-2.24-.36-4.65,1.08-5.63,3.57.69.33,1.68.74,2.93,1.01.94.21,1.9.42,3.12.28.69-.08,1.96-.32,3.36-1.24.23.02.75.08,1.23.46.25.19.41.41.51.57Z"/>
        <path class="cls-7" d="M72.51,23.98l1.27-.62,2.24.55.16-.53-.62-.18c-.41-.45-.89-1.14-.93-2.01-.03-.55.15-.63.18-1.15.06-1.35-1.07-2.48-1.96-3.38-.63-.63-.75-.6-1.64-1.41-.95-.85-1.65-1.64-2.09-2.17.14,1.99.43,3.61.69,4.78.24,1.07.45,1.75.97,2.44.44.58,1,1.32,1.9,1.56.41.11.94.13,1.5.56.19.15.33.29.41.4-.33-.07-.67-.15-1.02-.23-1.15-.28-2.22-.61-3.21-.97-.47-.51-.95-1.02-1.42-1.53.06-1.77-.53-2.88-.85-3.37-.52-.81-1.15-1.26-2.38-2.14-1.1-.78-2.09-1.33-2.79-1.68-.04.86.03,2.23.69,3.7.32.71.82,1.84,2.05,2.71,1.18.84,2.39,1,2.96,1.03.42.39.83.79,1.25,1.18l-5.77-1.52c-.02-.17-.08-.57-.39-.95-.26-.32-.57-.47-.72-.54-.12-.1-.3-.25-.49-.47-.28-.33-.38-.57-.59-.59-.08,0-.21.02-.38.19-.03-.16-.17-.27-.31-.28-.17,0-.27.14-.28.15,0-.27-.19-.46-.37-.46-.18,0-.29.2-.29.21-.07-.07-.17-.16-.3-.25-.23-.16-.37-.26-.49-.21-.17.06-.19.37-.19.41-.26-.11-.46-.24-.61-.36-.22-.19-.32-.34-.46-.32-.14.02-.23.19-.3.38-.09-.09-.28-.26-.57-.33-.16-.04-.31-.04-.41-.03-.19-.11-.35-.17-.47-.21-.23-.07-.35-.11-.47-.05-.15.08-.2.27-.21.33-.09-.05-.23-.12-.4-.21-.27-.15-.34-.2-.45-.21-.09,0-.26,0-.49.19-.07-.12-.21-.18-.34-.17-.15.02-.28.13-.31.28-.23-.33-.59-.49-.88-.4-.06.02-.18.07-.29.21-.22-.19-.53-.22-.76-.09-.2.12-.36.36-.3.63.05.26.29.46.58.47.24.09.49.17.73.26.06.1.16.27.36.36.09.04.17.06.49.07.15,0,.35.01.6.01.04.4.18.56.3.64.19.12.38.04.77.11.25.05.46.13.59.2.05.26.16.38.25.44.17.12.34.07.75.11.22.02.4.06.51.08-.07.1-.24.39-.14.56.12.2.61.21,1.2-.06l.89.26c-.21.25-.3.42-.24.51.09.15.54.09,1.35-.18l.34.1c-.09.25-.07.49.06.59.16.13.56.05.82-.34.21.06.71.19,1.29.01.38-.11.65-.3.8-.43,1.58.4,3.16.79,4.74,1.19-.22.08-.53.16-.91.17-.21,0-.39-.02-.54-.04-.89-.41-2.31-.84-3.86-.47-1.29.31-2.17,1.06-3.37,2.08-.9.77-1.56,1.51-1.99,2.03.73,0,1.75,0,2.97-.03,2.43-.05,2.9-.15,3.32-.29.67-.23,1.78-.76,2.86-2.23.26-.2.63-.45,1.11-.64.42-.17.81-.26,1.11-.3,1.33.29,2.65.58,3.98.87-.14.09-.35.19-.63.25-.19.04-.37.05-.5.04-.76-.23-2.29-.55-3.91.07-1.59.61-2.47,1.83-3.23,2.89-.69.94-1.1,1.83-1.35,2.45.51-.15,1.28-.33,2.23-.43.87-.09,1.1-.02,1.72-.09.38-.05,1.71-.22,2.89-1.09,1.38-1.02,1.87-2.47,2.04-3.08Z"/>
      </g>
    </pattern>
  </defs>
  <g id="Layer_2" data-name="Layer 2">
    <rect class="cls-4" width="250" height="150"/>
  </g>
  <g id="Layer_4" data-name="Layer 4">
    <rect class="cls-5" y="0" width="250" height="150"/>
  </g>
  <g id="Layer_1" data-name="Layer 1">
    <g>
      <g>
        <path class="cls-3" d="M17.09,119.46v-2.22l4.36.22,7.95.06.1-.98-5.72-.86-6.11-.95.23-8.55-.42-9.22,6.92.16,12.25-.13-.48,7.89.16,6.62-6.24-.13h-5.46l-.06.89,4.3.73,7.31.98.06,2.76-.23,2.72-12.06.22-6.85-.22Z"/>
        <path class="cls-3" d="M38.03,119.43l-.1-2.47.29-3.58,8.34.06,2.62.22-.03-2.22-5.56-.09-5.88.13.32-4.75-.26-6.3,6.79.32,8.79.03-.45,6.08.13,12.64-3.91.16-11.09-.22ZM49.22,115.63l-5.88-.22-1.81.03-.03,2,6.01.16,1.78-.09-.06-1.87Z"/>
        <path class="cls-3" d="M54.39,119.59l.39-7.76-.29-11.18,9.47-.13,6.98.48.06,7.38-.81,5.77.68,3.14-.13,2.12-7.24.29-9.12-.09ZM63.41,117.62l3.52-.13-.29-2.03-3.78.13-4.17-.09-.13,2.03,4.85.09ZM61.18,113.54l5.37-.09.19-2.15-5.17.1-2.91-.06-.03,2.12,2.55.09Z"/>
        <path class="cls-3" d="M72.07,119.33l-.16-6.05.23-12.51,10.02-.25,5.95.38-.06,11.88-.32,6.65-8.4.25-7.24-.35ZM84.19,117.59l.1-2.34-.03-3.74-4.95-.13-3.56.03-.13,2.95.16,3.26,5.3.13,3.1-.16Z"/>
        <path class="cls-3" d="M101.36,116.74l-4.14.22-3.85-.1-.06,2.63-2.46-.06-1.62.03.36-6.56-.23-12.39,9.79.25,6.69-.16.26,12.16-.91,2.91,1.26,3.67-4.11.44-1-3.07ZM101.68,114.71l.42-1.71-.1-1.58-3.81.13h-4.69l.06,3.33,4.14.06,3.98-.22Z"/>
        <path class="cls-3" d="M112.54,119.46l-.36-10.64.36-11.34,9.96-.44,7.95.16-.48,8.58.16,5.77-6.88-.16-3.88.06.19,6.11,5.92.06,4.69-.25-.03.95-.03,1.08-7.34.22-10.21-.16Z"/>
        <path class="cls-3" d="M131.67,119.33l-.16-6.05.23-12.51,10.02-.25,5.95.38-.06,11.88-.32,6.65-8.4.25-7.24-.35ZM143.8,117.59l.1-2.34-.03-3.74-4.95-.13-3.56.03-.13,2.95.16,3.26,5.3.13,3.1-.16Z"/>
        <path class="cls-3" d="M148.84,119.49l.06-1.08.03-1.01,6.69.29,3.49-.06.07-.73-5.98-1.33-3.98-.89-.26-6.87.26-6.97,9.34-.35,6.04.25-.45,5.13.13,5.83-5.11-.16-4.56-.03-.03.79,4.56,1.08,5.17.89-.03,2.28-.06,2.82-8.7.29-6.69-.16Z"/>
        <path class="cls-3" d="M172.82,119.33l-5.82.06.29-5.1.03-8.27-1.81.13-.06-5.45,3.72.06,11.51-.25-.06,5.51-1.62-.03-.26,4.25-.06,9.25-5.85-.16Z"/>
        <path class="cls-3" d="M181.88,119.37l-.32-5.32.29-13.3,4.98-.25,10.25.25.1,7.79-.32,7.16-6.08.13-5.3-.25.13,2,3.46.16,7.98-.25-.03.86-.03,1.2-7.3.16-7.79-.32ZM193.48,111.57l-5.5-.06-2.49.06-.1,2,3.46.16,4.49-.03.13-2.12Z"/>
        <path class="cls-3" d="M202.85,115.98l-.71-3.67-.45.03.1,4.75.06,2.25-3.56.06.13-10.33-.19-8.43,4.23.13,7.43-.29.94,7.19.78,4.05h.49l.06-5.54-.13-5.61,3.52.06-.19,8.62.06,10.17-3.91-.09-8.11.19-.55-3.55ZM205.02,99.25l-3.1.13-.1-2.25,8.73.25,2.13-.13.07,2.15-7.73-.16Z"/>
        <path class="cls-3" d="M216.78,119.33l-.16-6.05.23-12.51,10.02-.25,5.95.38-.06,11.88-.32,6.65-8.4.25-7.24-.35ZM228.91,117.59l.1-2.34-.03-3.74-4.95-.13-3.56.03-.13,2.95.16,3.26,5.3.13,3.1-.16Z"/>
      </g>
      <g>
        <rect class="cls-6" x="17.09" y="122.09" width="93.95" height="15.09"/>
        <path class="cls-3" d="M17.33,127.17l.48-.06c.12-.02.19-.05.22-.1.03-.05.05-.14.05-.27v-3.28c0-.13-.02-.22-.05-.27-.03-.04-.1-.08-.22-.09l-.48-.06v-.41h2.53c.42,0,.77.06,1.05.19s.49.31.64.54c.14.23.21.5.21.8s-.07.57-.22.81c-.15.24-.36.42-.65.55-.28.13-.63.2-1.04.2h-.98v1.03c0,.14.02.24.05.29.04.05.11.07.21.08l.63.06v.41h-2.45v-.41ZM20.37,125.1c.18-.08.31-.19.4-.35.09-.16.14-.35.14-.58s-.04-.42-.13-.58c-.08-.16-.22-.27-.4-.35-.18-.08-.41-.11-.68-.11h-.82v2.09h.82c.27,0,.49-.04.67-.12Z"/>
        <path class="cls-3" d="M23.1,127.46c-.28-.15-.49-.37-.64-.66-.15-.29-.23-.62-.23-1s.07-.73.21-1.03c.14-.3.34-.54.61-.71.27-.17.59-.26.96-.26s.65.08.9.22.43.35.55.61c.13.25.19.54.19.87,0,.11,0,.21-.01.32h-2.89s0-.43,0-.43h2.13c0-.37-.08-.65-.23-.84s-.38-.29-.67-.29-.53.12-.71.36c-.17.24-.26.6-.26,1.08,0,.31.06.58.19.79.12.21.29.37.49.46.21.1.44.14.7.14.34,0,.69-.07,1.06-.22l.14.29c-.16.13-.37.24-.63.35-.26.11-.56.17-.9.17-.36,0-.69-.08-.96-.23Z"/>
        <path class="cls-3" d="M26.22,127.22l.39-.05c.1-.02.17-.05.21-.1.04-.05.06-.13.06-.24v-2.13c0-.1-.02-.17-.06-.22-.04-.05-.11-.08-.21-.1l-.39-.05v-.33l1.39-.17-.04.94h.06c.13-.18.29-.35.47-.51.18-.16.36-.29.54-.39h.51v.85h-.62c-.14,0-.29.05-.44.14-.15.09-.3.21-.43.37v1.6c0,.11.02.19.06.25.04.05.1.08.19.09l.52.06v.36h-2.2v-.37Z"/>
        <path class="cls-3" d="M30.5,127.38c-.19-.2-.28-.49-.28-.88v-1.81c0-.1-.02-.17-.06-.22-.04-.05-.11-.08-.21-.1l-.4-.05v-.33l1.44-.17v2.36c0,.33.05.56.16.69s.27.2.49.2c.15,0,.32-.03.52-.08.2-.06.38-.12.56-.2l-.1.16v-2.25c0-.1-.02-.17-.06-.22-.04-.05-.11-.08-.21-.1l-.39-.05v-.33l1.43-.17v2.9c0,.15.02.26.06.32.04.06.1.1.2.13l.3.07v.29c-.13.04-.26.07-.39.09-.13.03-.24.04-.34.04-.17,0-.3-.04-.4-.13-.1-.09-.15-.21-.16-.36-.28.16-.52.29-.74.38-.22.09-.45.13-.68.13-.3,0-.54-.1-.73-.3Z"/>
        <path class="cls-3" d="M34.39,124.42c-.07-.06-.16-.09-.26-.11h-.09v-.38h1.81v.37l-.3.04c-.07.02-.13.04-.15.07-.03.03-.04.07-.04.11s.03.16.1.34l.78,2.15.73-1.97c.04-.13.07-.23.1-.31.02-.08.04-.15.04-.2,0-.05-.01-.09-.04-.12-.03-.03-.08-.05-.15-.06l-.35-.05v-.37h1.61v.37l-.08.02c-.12.02-.21.07-.28.15s-.15.2-.22.38l-1.11,2.78h-.73l-1.16-2.91c-.05-.14-.11-.24-.19-.29Z"/>
        <path class="cls-3" d="M38.49,127.22l.39-.05c.1-.02.17-.05.21-.1.04-.05.06-.13.06-.24v-2.13c0-.1-.02-.17-.06-.22-.04-.05-.11-.08-.21-.1l-.39-.05v-.33l1.44-.17v3c0,.11.02.19.05.24.04.05.1.09.2.11l.41.05v.37h-2.09v-.37ZM39.14,123.12c-.1-.09-.15-.21-.15-.36s.05-.26.15-.36c.1-.09.23-.14.38-.14s.28.05.38.14c.1.09.15.21.15.36s-.05.27-.15.36c-.1.09-.23.14-.39.14s-.29-.05-.39-.14Z"/>
        <path class="cls-3" d="M41.29,127.43c-.2-.16-.3-.38-.3-.67,0-.21.07-.39.21-.56.14-.17.38-.31.73-.44.35-.13.82-.23,1.43-.31v.35c-.42.08-.74.17-.98.26s-.4.2-.49.3c-.09.11-.13.22-.13.34,0,.15.05.27.15.34.1.08.24.11.41.11.15,0,.31-.03.46-.09.15-.06.32-.16.5-.3l.16.27-.06.05c-.22.19-.43.33-.63.43-.2.1-.42.15-.68.15-.32,0-.58-.08-.78-.25ZM43.33,127.5c-.11-.11-.16-.27-.16-.47v-1.99c0-.28-.06-.47-.17-.59-.11-.12-.28-.18-.5-.18-.15,0-.27.02-.37.06-.1.04-.17.1-.23.17-.06.07-.1.16-.13.27l-.08.29h-.4l-.15-1c.3-.07.58-.13.83-.17.26-.05.51-.07.75-.07.37,0,.67.1.89.29.22.2.33.51.33.94v1.67c0,.15.02.26.06.32.04.06.1.1.2.13l.29.07v.29l-.07.02c-.11.03-.23.05-.35.08-.12.02-.22.04-.3.04-.18,0-.33-.05-.43-.17Z"/>
        <path class="cls-3" d="M44.86,127.22l.39-.05c.1-.02.17-.05.21-.1.04-.05.06-.13.06-.24v-2.13c0-.1-.02-.17-.06-.22-.04-.05-.11-.08-.21-.1l-.39-.05v-.33l1.36-.17v.78l-.2-.14.17-.08c.22-.12.41-.22.58-.3s.34-.14.5-.19c.16-.05.32-.07.47-.07.32,0,.57.1.74.29.17.19.26.47.26.84v1.87c0,.11.02.19.05.24.03.05.11.08.21.1l.34.05v.37h-2.02v-.37l.39-.06c.1-.01.17-.05.2-.09.04-.05.06-.13.06-.24v-1.71c0-.23-.05-.4-.15-.51-.1-.11-.24-.17-.43-.17-.16,0-.35.03-.56.08s-.39.11-.54.17v2.14c0,.11.02.19.05.24.03.05.1.08.2.09l.39.06v.37h-2.07v-.37Z"/>
        <path class="cls-3" d="M51.21,127.22l.4-.05c.1-.02.17-.05.21-.1.04-.05.06-.13.06-.24v-2.44h-.55v-.32l.55-.15v-.5c.03-.44.15-.79.39-1.04.24-.26.58-.38,1.02-.38.18,0,.38.02.59.05.21.03.44.07.69.13l.57-.07v4.73c0,.11.02.19.06.24.04.05.11.08.21.1l.4.05v.37h-2.1v-.37l.41-.05c.1-.02.17-.05.2-.1.04-.05.06-.13.06-.24v-4.05c-.21-.08-.42-.14-.63-.2-.22-.05-.42-.08-.61-.08-.21,0-.37.06-.47.17-.1.11-.15.27-.15.48,0,.14.01.28.04.41s.06.25.1.36h.97v.47h-.96v2.44c0,.12.02.2.06.25.04.05.1.08.2.09l.51.06v.36h-2.21v-.37Z"/>
        <path class="cls-3" d="M56.49,127.43c-.2-.16-.3-.38-.3-.67,0-.21.07-.39.21-.56.14-.17.38-.31.73-.44.35-.13.82-.23,1.43-.31v.35c-.42.08-.74.17-.98.26s-.4.2-.49.3c-.09.11-.13.22-.13.34,0,.15.05.27.15.34.1.08.24.11.41.11.15,0,.31-.03.46-.09.15-.06.32-.16.5-.3l.16.27-.06.05c-.22.19-.43.33-.63.43-.2.1-.42.15-.68.15-.32,0-.58-.08-.78-.25ZM58.53,127.5c-.11-.11-.16-.27-.16-.47v-1.99c0-.28-.06-.47-.17-.59-.11-.12-.28-.18-.5-.18-.15,0-.27.02-.37.06-.1.04-.17.1-.23.17-.06.07-.1.16-.13.27l-.08.29h-.4l-.15-1c.3-.07.58-.13.83-.17.26-.05.51-.07.75-.07.37,0,.67.1.89.29.22.2.33.51.33.94v1.67c0,.15.02.26.06.32.04.06.1.1.2.13l.29.07v.29l-.07.02c-.11.03-.23.05-.35.08-.12.02-.22.04-.3.04-.18,0-.33-.05-.43-.17Z"/>
        <path class="cls-3" d="M59.95,124.42c-.07-.06-.16-.09-.26-.11h-.09v-.38h1.81v.37l-.3.04c-.07.02-.13.04-.15.07-.03.03-.04.07-.04.11s.03.16.1.34l.78,2.15.73-1.97c.04-.13.07-.23.1-.31.02-.08.04-.15.04-.2,0-.05-.01-.09-.04-.12-.03-.03-.08-.05-.15-.06l-.35-.05v-.37h1.61v.37l-.08.02c-.12.02-.21.07-.28.15s-.15.2-.22.38l-1.11,2.78h-.73l-1.16-2.91c-.05-.14-.11-.24-.19-.29Z"/>
        <path class="cls-3" d="M64.9,127.45c-.28-.16-.5-.39-.66-.68-.16-.29-.23-.63-.23-1.01s.08-.71.23-1.01c.16-.29.38-.52.66-.69.28-.16.61-.25.99-.25s.7.08.98.25c.29.16.51.39.67.69s.23.63.23,1.01-.08.72-.23,1.01c-.16.29-.38.52-.67.68-.29.16-.61.25-.98.25s-.7-.08-.99-.25ZM66.45,127.08c.16-.1.27-.25.35-.47.08-.21.12-.49.12-.84s-.04-.63-.12-.85c-.08-.22-.2-.38-.35-.49-.15-.11-.34-.16-.56-.16s-.41.05-.57.15c-.15.1-.27.25-.35.47-.08.21-.12.49-.12.84s.04.63.12.85c.08.22.2.38.35.48.15.11.34.16.57.16s.41-.05.56-.15Z"/>
        <path class="cls-3" d="M68.37,127.22l.39-.05c.1-.02.17-.05.21-.1.04-.05.06-.13.06-.24v-2.13c0-.1-.02-.17-.06-.22-.04-.05-.11-.08-.21-.1l-.39-.05v-.33l1.39-.17-.04.94h.06c.13-.18.29-.35.47-.51.18-.16.36-.29.54-.39h.51v.85h-.62c-.14,0-.29.05-.44.14-.15.09-.3.21-.43.37v1.6c0,.11.02.19.06.25.04.05.1.08.19.09l.52.06v.36h-2.2v-.37Z"/>
      </g>
      <g>
        <path class="cls-10" d="M116.41,97.25c-.46,1.13-.98,1.88-1.39,2.35-.24.27-.6.65-.84,1.29-.18.48-.22.92-.22,1.22-.1.36-.31,1.26.05,2.3.21.61.55,1.04.78,1.3-.08-.42-.14-.97-.08-1.62.04-.36.1-.67.18-.94.13.07.49.22.77.07.14-.07.28-.23.42-.93.07-.36.14-.87.14-1.5.15-.39.53-1.23,1.42-1.88.5-.37,1-.56,1.35-.65-.07.36-.22.84-.61,1.26-.16.17-.26.22-.38.36-.23.27-.44.73-.35,1.6-.04.43-.08,1.44.54,2.4.18.28.38.49.56.66-.11-.23-.24-.56-.3-.97-.08-.55,0-1.01.06-1.29.14.05.45.14.73,0,.43-.21.65-.9.38-1.63.24-.34.57-.75,1.02-1.16.53-.48,1.05-.8,1.46-1.01.54-.1,1.09-.2,1.64-.3.43-.08.86-.16,1.29-.23,1.15.27,2.31.53,3.46.8.35.07.97.24,1.57.7.34.27.58.55.74.78,0-.34-.04-.9-.31-1.53-.33-.76-.83-1.23-1.1-1.45-.34.03-.8.03-1.34-.08-.53-.1-.95-.27-1.25-.42,1.34-.24,2.67-.48,4.01-.72l-.75-1.71-1.74-.28c-.16.05-5.78,1.31-5.78,1.31-1.29.14-2.37.26-3.2.34-1.01.1-1.43.14-1.97.17-1.02.05-1.86.04-2.45.02-.54.41-1.09.82-1.63,1.23-.18.2-.64.75-.74,1.59-.08.62.07,1.12.16,1.37-.02-.09-.16-.64.18-1.16.25-.38.61-.53.73-.57.2,0,.58-.03.99-.25.5-.26.76-.65.87-.82.31-.01.62-.02.93-.03,1.49-.5,2.97-1,4.46-1.5"/>
        <path class="cls-10" d="M144.39,98.19c-.86,1.03-1.9,2.16-3.14,3.3-1.27,1.17-2.5,2.13-3.62,2.92-1.13.63-2.54,1.28-4.2,1.8-.94.3-1.82.51-2.63.66-.56.59-1.12,1.18-1.68,1.76-.18.18-.55.63-.7,1.32-.19.9.15,1.61.26,1.81-.02-.25-.03-.79.27-1.36.15-.27.32-.47.46-.61.18.06.43.11.69.04.55-.14.97-.73,1.04-1.47,1.26-.37,2.53-.73,3.79-1.1-.88.82-1.76,1.65-2.65,2.47-.5,1.42-1,2.83-1.49,4.25-.11.32-.29,1.01-.12,1.86.19.97.73,1.59.97,1.83-.13-.43-.25-1.06-.18-1.83.03-.36.1-.67.18-.94.31.21.51.2.61.17.47-.12.79-1.01.65-2.23.3-.65.72-1.41,1.31-2.2.96-1.29,2.01-2.16,2.82-2.72-.39.98-.78,1.95-1.16,2.93l.03,2.96c-.02.21-.12,1.35.67,2.15.23.23.48.38.69.47-.14-.21-.35-.57-.45-1.07-.11-.53-.05-.96,0-1.21.07.02.18.03.29-.01.2-.07.35-.29.37-.55-.06-.55-.08-1.37.16-2.3.13-.5.3-.93.47-1.27.39-.7.78-1.4,1.18-2.1.58-.31,1.17-.62,1.75-.93l3.66.47.73.47c.15.05.29.09.44.14.09.02.2.05.32.11.34.19.47.51.51.63.06-.14.23-.62.06-1.2-.2-.64-.69-.94-.8-1.01-.04-.12-.11-.28-.24-.45-.25-.3-.56-.41-.69-.45-.75-.07-1.51-.13-2.26-.2-.08-.03-.33-.13-.48-.4-.24-.4-.07-.82-.05-.87,2.06-1.64,4.13-3.28,6.19-4.92l-4.03-1.13Z"/>
        <path class="cls-11" d="M102.88,36.48c-.4-.27-1.1-.82-1.56-1.77-.2-.41-.31-.79-.38-1.1.43.26.87.52,1.3.78-.41-.4-.97-1.04-1.43-1.95-.5-.99-.67-1.89-.74-2.47l1.34,1.04c-.42-.6-1.03-1.65-1.34-3.08-.35-1.6-.16-2.93,0-3.67.26.14.52.29.78.43,0-.6.07-1.52.46-2.56.33-.87.76-1.51,1.1-1.94.12.29.23.58.35.87.09-.42.24-.96.55-1.55.51-.97,1.18-1.58,1.62-1.92v1.13c.52-.92,1.76-2.79,4.11-4.12,1.59-.9,3.08-1.21,4.03-1.33-.26.38-.52.75-.78,1.13,1.01-.56,2.62-1.29,4.72-1.61,1.73-.26,3.2-.16,4.23,0-.09.12-.18.24-.28.36.76-.19,1.95-.39,3.4-.23,1.34.15,2.4.55,3.08.88-.26.14-.52.29-.78.43.62-.05,1.63-.05,2.8.33,1.07.34,1.84.86,2.31,1.23-.81.06-1.62.12-2.42.17.92-.03,2.4.04,4.02.74.77.33,1.39.72,1.87,1.08-.72-.06-1.44-.12-2.16-.17.75.09,1.97.34,3.27,1.09,1.02.58,1.73,1.26,2.18,1.77-.51-.04-1.02-.08-1.52-.12.62.36,1.34.85,2.09,1.5.63.55,1.14,1.1,1.54,1.59-.76-.23-1.53-.45-2.29-.68.68.33,1.46.77,2.27,1.39,1.46,1.11,2.43,2.33,3.03,3.25-1.24-.69-2.48-1.39-3.72-2.08-.03-.02,1.66.74,2.89,2.31.94,1.2,1.32,2.52,1.49,3.53-.82-.76-1.63-1.53-2.45-2.29.72.65,1.82,1.82,2.57,3.58.41.96.61,1.84.71,2.55-1.45-1.72-2.89-3.44-4.34-5.17.84.53,2.84,1.96,3.81,4.61.39,1.06.51,2.03.53,2.77-1.16-1.19-2.32-2.38-3.47-3.57.53.31,2.26,1.43,2.77,3.52.13.55.15,1.06.13,1.49-1.17-1.38-2.33-2.76-3.5-4.15.26.14,2.8,1.51,2.87,3.82.01.32-.03.73-.19,1.2-1.04-1.07-2.08-2.14-3.12-3.2.61.51,1.36,1.28,1.92,2.4.14.28.25.55.34.8-1.07-.69-2.02-1.11-2.71-1.36-1.37-.5-3.88-1.41-6.2-.35-.45.21-.79.44-1.01.61.52.99,1.22,2.12,2.17,3.28.48.58.96,1.1,1.43,1.55h-.78c.36.39.84.84,1.45,1.25.28.19.55.35.81.48h-1.13c1.06.88,2.13,1.76,3.19,2.64-.33-.11-.69-.24-1.06-.4-.55-.24-1.04-.51-1.44-.77-.03-.02,1.92,1.57,4.72,3.37,3.61,2.33,4.19,2.22,6.98,3.96,1.91,1.19,5.27,3.31,8.3,6.93,2.23,2.66,4,5.8,3.68,6.05-.22.17-1.44-1.02-2.52-2.14.57.52,1.43,1.43,2.09,2.8.7,1.45.87,2.76.91,3.54-.55-1.04-1.1-2.08-1.65-3.12.02.07.17.5-.07.91-.2.36-.62.58-1.06.56-.4-.61-.81-1.21-1.21-1.82-.68.14-1.5.19-2.4,0-3.51-.75-4.98-4.59-5.14-5.02.35.92.69,1.85,1.04,2.77-.64-.19-1.58-.56-2.53-1.28-1.37-1.04-2.08-2.28-2.4-2.96.23.69.46,1.39.69,2.08-.63-.21-1.81-.7-2.73-1.86-.3-.38-.51-.75-.66-1.08-.11.01-.78.07-1.33-.43-.53-.48-.56-1.1-.56-1.21-.35,0-.74-.01-1.18-.1-1.43-.28-2.41-1.08-2.89-1.55l2.42,2.25c-.54-.4-1.47-.98-2.76-1.31-1.55-.39-2.85-.22-3.55-.08-.39.15-1.06.45-1.7,1.09-.74.74-1.05,1.53-1.18,1.95.38.55.75,1.1,1.13,1.65-.07.27-.2.36-.25.39-.3.17-.85-.05-1.26-.63.42.89.84,1.77,1.25,2.66.06.2.21.77.06.84-.18.09-.72-.62-.8-.73.42,1.52.84,3.04,1.26,4.56l-1.99-1.47c.4.79.89,1.64,1.5,2.53.35.51.71.98,1.06,1.41-.65-.48-1.31-.95-1.96-1.43.15.38.34.81.59,1.26.29.53.6.98.89,1.34-.49-.17-.98-.35-1.47-.52.3.21,1.03.78,1.38,1.8.18.53.2,1,.18,1.32-.52-.26-1.04-.52-1.56-.78.14.32.3.78.37,1.35.06.49.04.91,0,1.24-.7-.72-1.4-1.44-2.1-2.15.28.5.68,1.39.74,2.56.03.59-.04,1.09-.13,1.49-.67-.6-1.33-1.2-2-1.79.09.38.18,1.03.03,1.79-.23,1.15-.87,1.89-1.16,2.19-.11-.61-.53-1.11-1.09-1.28-.63-.19-1.16.1-1.25.16.11.83.23,1.66.34,2.49-1.12-.63-2.25-1.26-3.37-1.89.3.2.86.65,1.26,1.43.29.57.37,1.1.39,1.43-.49.02-1.07,0-1.7-.11-2-.37-3.36-1.5-4.02-2.14.64,1.15,1.27,2.31,1.91,3.46-.63-.17-2.04-.66-3.16-2.01-.51-.62-.82-1.24-1-1.72-.12.72-.23,1.44-.35,2.16-.5-.41-1.01-.84-1.53-1.3-.73-.64-1.4-1.28-2.02-1.91l.35,1.13c-.49-.18-1.04-.45-1.61-.84-1.75-1.22-2.5-2.91-2.81-3.75-.03.43-.06.87-.09,1.3-.57-.83-1.16-1.83-1.64-3.02-1.57-3.86-1.22-7.44-.87-9.36l-.95,5.83c-.28-1.29-.53-2.98-.48-4.97.04-1.7.28-3.16.56-4.33-.26.92-.52,1.85-.78,2.77-.22-1.01-.47-2.86.04-5.08.45-1.91,1.29-3.3,1.86-4.1-.4.23-.81.46-1.21.69.46-.87.92-1.87,1.34-2.99.48-1.26.83-2.44,1.08-3.5-.27.29-.54.59-.8.88-.14-.4-.29-.79-.43-1.19-.17.11-.34.22-.5.33.11-.45.27-.98.5-1.54.2-.48.42-.9.63-1.25-.25.27-.59.37-.88.27-.18-.06-.28-.19-.33-.27.2-.38.44-.93.57-1.63.18-1,.06-1.83-.06-2.33,1.43.01,2.87.02,4.3.03,0-.15,0-1.22.88-1.98.97-.84,2.16-.56,2.28-.53-.75-.83-1.5-1.31-2.01-1.58-.61-.32-1.81-.97-3.35-.93-.67.01-1.31.15-1.43-.09-.08-.18.14-.46.37-.69-.32-.21-.72-.44-1.19-.65-.57-.25-1.09-.41-1.53-.51Z"/>
        <path class="cls-2" d="M131.44,59.56c.22-.42.93-1.6,2.33-2.1.97-.34,1.81-.2,2.6-.06.72.13,1.95.45,3.28,1.38-1.43-1.25-1.69-1.57-1.65-1.63.07-.09.78.45,1.96.88.72.26,1.34.38,1.76.44.05.19.19.68.66,1.1.5.45,1.05.53,1.24.55.25.43.64,1.01,1.23,1.57.73.69,1.46,1.08,1.97,1.31-.15-.64-.3-1.28-.45-1.92.3.61.9,1.65,2.02,2.6,1.11.93,2.22,1.36,2.87,1.55-.35-.92-.69-1.85-1.04-2.77.18.56.99,2.8,3.37,4.13,1.78,1,3.48.95,4.17.89.38.57.76,1.13,1.13,1.7.08,0,.53-.02.87-.39.38-.4.34-.89.33-.97.32.52.65,1.08.97,1.7.25.49.48.96.68,1.42-.44-1.5-.88-3-1.32-4.5.56.69,1.21,1.5,1.85,2.28,3.35,4.15,3.42,4.21,3.88,4.83,4.01,5.39,3.38,6.77,3.19,7.1-.08.14-.17.25-.23.31.49.61,1.2,1.63,1.66,3.05.43,1.31.48,2.46.46,3.22.64,1.98.82,3.03.56,3.16-.07.04-.18,0-.33-.12.13.41.37,1.32,0,2.31-.09.25-.21.46-.33.64.1.15.22.37.29.67.09.38.06.71.03.9.1.17.25.41.42.7.62,1.04.7,1.2.77,1.38.1.3.21.75.15,1.38.27.26.65.74.79,1.41.04.2.22,1.13-.22,1.37-.31.17-.75-.09-.84-.15-1.29-.57-2.59-1.17-3.91-1.8-.28-.14-.56-.27-.84-.41-4.45-1.63-8.17-3.16-11.02-4.38-7.52-3.23-9.98-4.79-11.84-6.16-2.38-1.76-4.14-3.48-5.3-4.72-2.38-2.64-4.76-5.29-7.13-7.93-.03-.36-.14-1.06-.59-1.78-.52-.84-1.22-1.27-1.54-1.44.59.25,1.18.51,1.77.76l-1.3-2.93,1.52,1.17-2.03-3.26c.6.38,1.2.76,1.8,1.14-.43-1.68-.86-3.37-1.29-5.05l.67,1.35c.11.07.26.14.33.08.14-.11-.13-.66-.29-1.02-.25-.54-.6-1.33-1-2.37.28.42.71.62,1.04.51.07-.02.21-.09.34-.27-.33-.55-.66-1.09-.99-1.64l.54-1.16Z"/>
        <path class="cls-8" d="M112.7,81.93c.59,1.48,1.28,2.55,1.84,3.28,0,0,.36.47,2.39,2.67l-.57-1.56c.31.65.9,1.63,1.95,2.5.51.42,1,.71,1.43.92-.13-.43-.25-.86-.38-1.29.28.48.73,1.14,1.43,1.78.6.55,1.19.91,1.65,1.15-.06-.3-.13-.61-.19-.91.65.74,1.86,1.89,3.71,2.6.81.31,1.56.47,2.18.55.05.17.23.73.78,1.13.46.33.92.38,1.12.39.26.3.51.61.77.91.18.03.38.06.61.07.39.02.74-.02,1.01-.07-.09.13-.18.25-.27.38.14-.06.68-.29,1.24-.05.16.07.28.16.37.24.12-.16.29-.35.52-.53.32-.26.63-.41.86-.5.19.15.53.38,1.01.5.38.1.71.09.93.07-.13-.19-.25-.38-.38-.57.41.22.88.43,1.4.62,1.27.46,2.44.63,3.35.67.28.11.85.38,1.35.97.47.57.63,1.16.69,1.45.25-.28.51-.55.76-.83l.46,1.33.23-.46.57.23.27-.27.8.49.49-.53.42.95c.25-.09.5-.18.75-.27.07.09.13.18.2.27.63-.49,1.27-.98,1.9-1.47.1.04.2.07.3.11.12-.23.24-.45.36-.68.06.09.11.18.17.26.49.36,1.15.78,1.96,1.14.73.32,1.39.52,1.95.64,1.71,5.43,3.73,11.06,6.1,16.84.65,1.59,1.32,3.15,1.99,4.68,4.68,4.62,9.36,9.24,14.04,13.85,1.05.77,2.44.86,3.54.23,1.22-.7,1.84-2.16,1.51-3.57-.9-3.26-1.94-6.63-3.14-10.11-2.97-8.56-6.39-16.16-9.85-22.76-.31-.2-.79-.5-1.41-.79-.94-.45-1.61-.61-2.36-.85-.94-.3-1.35-.51-2.88-1.18-3.51-1.52-4.8-1.91-7.91-3.29-3.85-1.71-6-2.67-8.71-4.51-2.37-1.62-4.04-3.14-4.54-3.61-1.85-1.72-2.63-2.8-5.51-5.96-1.47-1.61-2.69-2.89-3.47-3.71-.25,0-.58-.03-.89-.21-.5-.29-.66-.8-.75-.76-.1.04.12.68.26,1.42.13.66.17,1.21.18,1.59-.73-.83-1.46-1.66-2.19-2.49.22.48.46,1.16.59,2,.13.85.09,1.57.02,2.09-.67-.59-1.34-1.18-2.01-1.78.11.33.3,1.1.08,2.03-.26,1.08-.92,1.72-1.18,1.95-.02-.08-.19-.71-.82-1-.49-.22-1.07-.15-1.51.18.13.76.26,1.53.39,2.29l-3.29-1.67c.33.26.93.82,1.26,1.72.13.35.18.68.2.95-.63.03-1.54,0-2.55-.33-1.94-.62-3.09-1.92-3.56-2.51.43.87.89,1.76,1.4,2.66.24.42.47.84.71,1.24-.49-.17-1.13-.45-1.78-.94-1.29-.97-1.89-2.19-2.15-2.81-.12.8-.25,1.6-.37,2.41l-1.81-1.56Z"/>
        <path class="cls-9" d="M98.67,43.58c.09-.88.35-2.33,1.21-3.91.92-1.7,2.11-2.76,2.83-3.31.63.23,1.28.49,1.96.81.29.14.57.27.84.41-.17.31-.34.62-.51.93.71-.12,2.28-.28,4.07.41,1.51.58,2.47,1.5,2.95,2.02-.11-.03-1.31-.3-2.28.53-.88.76-.88,1.84-.88,1.98-.78-.05-1.6-.08-2.47-.08-.72,0-1.4.02-2.06.06-.91-.2-1.89-.39-2.91-.55-.53-.08-1.04-.15-1.55-.21-.4.3-.8.6-1.21.9Z"/>
        <circle class="cls-1" cx="117.24" cy="37.18" r="2.87"/>
        <path class="cls-1" d="M114.37,37.18l-.72,1.2c.15,0,.49,0,.85.18.32.17.5.4.59.52"/>
        <circle class="cls-2" cx="117.24" cy="37.23" r="1.59"/>
      </g>
    </g>
  </g>
</svg>