<?xml version="1.0" encoding="UTF-8"?>
<svg id="a" data-name="Layer 1" xmlns="http://www.w3.org/2000/svg" viewBox="0 0 128.51 73.81">
  <defs>
    <style>
      .b {
        fill: #2c0800;
      }

      .c {
        fill: #4e4e4e;
      }

      .d {
        fill: #fff;
      }

      .e {
        fill: none;
      }

      .f {
        fill: #27262c;
      }

      .g {
        fill: #bac0b4;
      }

      .h {
        fill: #debb67;
      }

      .i {
        fill: #f46227;
      }
    </style>
  </defs>
  <g>
    <path class="d" d="M.31,63.31v-1.31l2.59.13,4.71.04.06-.58-3.39-.51-3.62-.56.13-5.07-.25-5.46,4.1.09,7.26-.08-.29,4.67.1,3.92-3.7-.08h-3.24l-.04.53,2.55.43,4.33.58.04,1.63-.13,1.61-7.14.13-4.06-.13Z"/>
    <path class="d" d="M12.72,63.29l-.06-1.46.17-2.12,4.94.04,1.55.13-.02-1.31-3.29-.06-3.49.08.19-2.82-.15-3.74,4.02.19,5.21.02-.27,3.6.08,7.49-2.32.09-6.57-.13ZM19.35,61.04l-3.49-.13-1.07.02-.02,1.18,3.56.09,1.05-.06-.04-1.11Z"/>
    <path class="d" d="M22.41,63.39l.23-4.6-.17-6.63,5.61-.08,4.14.28.04,4.37-.48,3.42.4,1.86-.08,1.26-4.29.17-5.4-.06ZM27.75,62.22l2.09-.08-.17-1.2-2.24.08-2.47-.06-.08,1.2,2.87.06ZM26.43,59.8l3.18-.06.12-1.28-3.06.06-1.72-.04-.02,1.26,1.51.06Z"/>
    <path class="d" d="M32.89,63.24l-.1-3.59.13-7.41,5.94-.15,3.52.23-.04,7.04-.19,3.94-4.98.15-4.29-.21ZM40.07,62.21l.06-1.39-.02-2.21-2.93-.08-2.11.02-.08,1.75.1,1.93,3.14.08,1.84-.09Z"/>
    <path class="d" d="M50.24,61.7l-2.45.13-2.28-.06-.04,1.56-1.46-.04-.96.02.21-3.89-.13-7.34,5.8.15,3.96-.09.15,7.21-.54,1.73.75,2.18-2.43.26-.59-1.82ZM50.43,60.5l.25-1.01-.06-.94-2.26.08h-2.78l.04,1.97,2.45.04,2.36-.13Z"/>
    <path class="d" d="M56.87,63.31l-.21-6.31.21-6.72,5.9-.26,4.71.09-.29,5.09.1,3.42-4.08-.09-2.3.04.12,3.62,3.5.04,2.78-.15-.02.56-.02.64-4.35.13-6.05-.09Z"/>
    <path class="d" d="M68.21,63.24l-.1-3.59.13-7.41,5.94-.15,3.52.23-.04,7.04-.19,3.94-4.98.15-4.29-.21ZM75.39,62.21l.06-1.39-.02-2.21-2.93-.08-2.11.02-.08,1.75.1,1.93,3.14.08,1.84-.09Z"/>
    <path class="d" d="M78.38,63.33l.04-.64.02-.6,3.96.17,2.07-.04.04-.43-3.54-.79-2.36-.53-.15-4.07.15-4.13,5.54-.21,3.58.15-.27,3.04.08,3.45-3.03-.09-2.7-.02-.02.47,2.7.64,3.06.53-.02,1.35-.04,1.67-5.15.17-3.96-.09Z"/>
    <path class="d" d="M92.59,63.24l-3.45.04.17-3.02.02-4.9-1.07.07-.04-3.23,2.2.04,6.82-.15-.04,3.27-.96-.02-.15,2.52-.04,5.48-3.47-.09Z"/>
    <path class="d" d="M97.95,63.26l-.19-3.15.17-7.88,2.95-.15,6.07.15.06,4.62-.19,4.24-3.6.08-3.14-.15.08,1.18,2.05.09,4.73-.15-.02.51-.02.71-4.33.09-4.62-.19ZM104.83,58.64l-3.26-.04-1.48.04-.06,1.18,2.05.09,2.66-.02.08-1.26Z"/>
    <path class="d" d="M110.39,61.25l-.42-2.18-.27.02.06,2.82.04,1.33-2.11.04.08-6.12-.12-4.99,2.51.08,4.41-.17.56,4.26.46,2.4h.29l.04-3.29-.08-3.32,2.09.04-.11,5.11.04,6.03-2.32-.06-4.81.11-.33-2.1ZM111.67,51.34l-1.84.08-.06-1.33,5.17.15,1.26-.08.04,1.28-4.58-.09Z"/>
    <path class="d" d="M118.64,63.24l-.1-3.59.13-7.41,5.94-.15,3.53.23-.04,7.04-.19,3.94-4.98.15-4.29-.21ZM125.82,62.21l.06-1.39-.02-2.21-2.93-.08-2.11.02-.08,1.75.1,1.93,3.14.08,1.84-.09Z"/>
  </g>
  <g>
    <rect class="e" x=".31" y="64.87" width="55.67" height="8.94"/>
    <path class="d" d="M.45,67.88l.28-.04c.07-.01.11-.03.13-.06.02-.03.03-.08.03-.16v-1.94c0-.08,0-.13-.03-.16-.02-.03-.06-.04-.13-.06l-.28-.04v-.25h1.5c.25,0,.46.04.62.11s.29.18.38.32c.08.14.13.29.13.47s-.04.34-.13.48c-.09.14-.22.25-.38.33-.17.08-.37.12-.61.12h-.58v.61c0,.09.01.14.03.17.02.03.06.04.13.05l.37.04v.25H.45v-.25ZM2.25,66.65c.1-.05.18-.11.24-.21.05-.09.08-.21.08-.35s-.02-.25-.07-.34c-.05-.09-.13-.16-.23-.21-.11-.04-.24-.07-.4-.07h-.49v1.24h.49c.16,0,.29-.02.39-.07Z"/>
    <path class="d" d="M3.87,68.06c-.16-.09-.29-.22-.38-.39-.09-.17-.13-.37-.13-.59s.04-.43.12-.61c.08-.18.2-.32.36-.42.16-.1.35-.15.57-.15s.39.04.53.13c.14.09.25.21.33.36s.11.32.11.52c0,.06,0,.13,0,.19h-1.71s0-.25,0-.25h1.27c0-.22-.05-.38-.14-.5-.09-.11-.22-.17-.4-.17s-.32.07-.42.21c-.1.14-.15.35-.15.64,0,.18.04.34.11.47.07.12.17.22.29.27.12.06.26.08.41.08.2,0,.41-.04.63-.13l.08.17c-.1.08-.22.14-.37.21-.15.06-.33.1-.53.1-.22,0-.41-.04-.57-.13Z"/>
    <path class="d" d="M5.72,67.91l.23-.03c.06-.01.1-.03.12-.06.02-.03.03-.08.03-.14v-1.26c0-.06-.01-.1-.04-.13s-.06-.05-.12-.06l-.23-.03v-.2l.83-.1-.02.56h.04c.08-.11.17-.21.28-.3s.21-.17.32-.23h.3v.5h-.37c-.08,0-.17.03-.26.08-.09.05-.18.13-.26.22v.95c0,.07.01.12.03.15.02.03.06.05.11.05l.31.04v.22h-1.3v-.22Z"/>
    <path class="d" d="M8.25,68c-.11-.12-.17-.29-.17-.52v-1.07c0-.06-.01-.1-.04-.13s-.06-.05-.12-.06l-.24-.03v-.2l.85-.1v1.4c0,.19.03.33.1.41.06.08.16.12.29.12.09,0,.19-.02.31-.05.12-.03.23-.07.33-.12l-.06.09v-1.33c0-.06-.01-.1-.04-.13s-.06-.05-.12-.06l-.23-.03v-.2l.85-.1v1.72c0,.09.01.15.03.19.02.04.06.06.12.07l.18.04v.17c-.08.02-.15.04-.23.06-.08.02-.14.02-.2.02-.1,0-.18-.03-.24-.08s-.09-.12-.1-.21c-.16.1-.31.17-.44.22-.13.05-.26.08-.4.08-.18,0-.32-.06-.43-.18Z"/>
    <path class="d" d="M10.56,66.25s-.09-.06-.15-.07h-.05v-.23h1.07v.22l-.18.03s-.07.02-.09.04-.02.04-.02.07.02.09.06.2l.46,1.27.44-1.17c.02-.08.04-.14.06-.18.01-.05.02-.09.02-.12,0-.03,0-.05-.02-.07-.02-.02-.05-.03-.09-.04l-.21-.03v-.22h.95v.22h-.05c-.07.03-.13.06-.17.1-.04.04-.09.12-.13.23l-.66,1.65h-.44l-.69-1.73c-.03-.08-.07-.14-.11-.17Z"/>
    <path class="d" d="M12.99,67.91l.23-.03c.06-.01.1-.03.12-.06.02-.03.03-.08.03-.14v-1.26c0-.06-.01-.1-.04-.13s-.06-.05-.12-.06l-.23-.03v-.2l.85-.1v1.78c0,.07.01.11.03.14.02.03.06.05.12.06l.24.03v.22h-1.24v-.22ZM13.37,65.48c-.06-.06-.09-.13-.09-.22s.03-.16.09-.21c.06-.06.13-.08.23-.08s.17.03.23.08c.06.05.09.12.09.21s-.03.16-.09.22-.14.08-.23.08-.17-.03-.23-.08Z"/>
    <path class="d" d="M14.65,68.04c-.12-.1-.18-.23-.18-.39,0-.12.04-.23.12-.33.08-.1.23-.18.43-.26.2-.08.49-.14.85-.18v.21c-.25.05-.44.1-.58.16-.14.06-.24.12-.29.18s-.08.13-.08.2c0,.09.03.16.09.2.06.04.14.07.24.07.09,0,.18-.02.27-.06.09-.04.19-.1.29-.18l.1.16-.04.03c-.13.11-.26.2-.37.26s-.25.09-.4.09c-.19,0-.34-.05-.46-.14ZM15.86,68.08c-.06-.07-.1-.16-.1-.28v-1.18c0-.16-.03-.28-.1-.35s-.16-.11-.29-.11c-.09,0-.16.01-.22.04-.06.02-.1.06-.14.1-.04.04-.06.1-.08.16l-.05.17h-.24l-.09-.59c.18-.04.34-.08.49-.1.15-.03.3-.04.44-.04.22,0,.4.06.53.17s.2.3.2.56v.99c0,.09.01.15.03.19s.06.06.12.07l.17.04v.17h-.04c-.07.03-.13.04-.21.06-.07.01-.13.02-.18.02-.11,0-.19-.03-.26-.1Z"/>
    <path class="d" d="M16.76,67.91l.23-.03c.06-.01.1-.03.12-.06.02-.03.03-.08.03-.14v-1.26c0-.06-.01-.1-.04-.13s-.06-.05-.12-.06l-.23-.03v-.2l.8-.1v.46l-.12-.08.1-.05c.13-.07.25-.13.35-.18.1-.05.2-.08.29-.11.1-.03.19-.04.28-.04.19,0,.34.06.44.17.1.12.15.28.15.5v1.11c0,.07.01.11.03.14.02.03.06.05.13.06l.2.03v.22h-1.19v-.22l.23-.03c.06,0,.1-.03.12-.06.02-.03.03-.08.03-.14v-1.02c0-.13-.03-.24-.09-.3s-.14-.1-.25-.1c-.1,0-.21.02-.33.05-.12.03-.23.07-.32.1v1.27c0,.07,0,.11.03.14.02.03.06.05.12.06l.23.03v.22h-1.23v-.22Z"/>
    <path class="d" d="M20.52,67.91l.24-.03c.06-.01.1-.03.12-.06.02-.03.03-.08.03-.14v-1.44h-.32v-.19l.32-.09v-.29c.02-.26.09-.47.23-.62.14-.15.34-.23.6-.23.11,0,.22,0,.35.03s.26.04.41.07l.34-.04v2.8c0,.07.01.11.03.14.02.03.06.05.12.06l.24.03v.22h-1.24v-.22l.24-.03c.06-.01.1-.03.12-.06.02-.03.03-.08.03-.14v-2.4c-.12-.05-.25-.09-.38-.12-.13-.03-.25-.05-.36-.05-.12,0-.22.03-.28.1-.06.07-.09.16-.09.29,0,.08,0,.16.02.24.02.08.04.15.06.21h.58v.28h-.57v1.44c0,.07.01.12.03.15.02.03.06.05.12.05l.3.04v.22h-1.31v-.22Z"/>
    <path class="d" d="M23.65,68.04c-.12-.1-.18-.23-.18-.39,0-.12.04-.23.12-.33.08-.1.23-.18.43-.26.2-.08.49-.14.85-.18v.21c-.25.05-.44.1-.58.16-.14.06-.24.12-.29.18s-.08.13-.08.2c0,.09.03.16.09.2.06.04.14.07.24.07.09,0,.18-.02.27-.06.09-.04.19-.1.29-.18l.1.16-.04.03c-.13.11-.26.2-.37.26s-.25.09-.4.09c-.19,0-.34-.05-.46-.14ZM24.86,68.08c-.06-.07-.1-.16-.1-.28v-1.18c0-.16-.03-.28-.1-.35s-.16-.11-.29-.11c-.09,0-.16.01-.22.04-.06.02-.1.06-.14.1-.04.04-.06.1-.08.16l-.05.17h-.24l-.09-.59c.18-.04.34-.08.49-.1.15-.03.3-.04.44-.04.22,0,.4.06.53.17s.2.3.2.56v.99c0,.09.01.15.03.19s.06.06.12.07l.17.04v.17h-.04c-.07.03-.13.04-.21.06-.07.01-.13.02-.18.02-.11,0-.19-.03-.26-.1Z"/>
    <path class="d" d="M25.71,66.25s-.09-.06-.15-.07h-.05v-.23h1.07v.22l-.18.03s-.07.02-.09.04-.02.04-.02.07.02.09.06.2l.46,1.27.44-1.17c.02-.08.04-.14.06-.18.01-.05.02-.09.02-.12,0-.03,0-.05-.02-.07-.02-.02-.05-.03-.09-.04l-.21-.03v-.22h.95v.22h-.05c-.07.03-.13.06-.17.1-.04.04-.09.12-.13.23l-.66,1.65h-.44l-.69-1.73c-.03-.08-.07-.14-.11-.17Z"/>
    <path class="d" d="M28.64,68.05c-.17-.1-.3-.23-.39-.4-.09-.17-.14-.37-.14-.6s.05-.42.14-.6c.09-.17.22-.31.39-.41s.36-.14.58-.14.41.05.58.14c.17.1.3.23.39.41.09.17.14.37.14.6s-.05.43-.14.6c-.09.17-.22.31-.39.4-.17.1-.36.15-.58.15s-.42-.05-.58-.15ZM29.55,67.83c.09-.06.16-.15.21-.28.05-.12.07-.29.07-.5s-.02-.37-.07-.5c-.05-.13-.12-.23-.21-.29-.09-.06-.2-.09-.33-.09s-.24.03-.34.09c-.09.06-.16.15-.21.28s-.07.29-.07.5.02.38.07.5c.05.13.12.22.21.29.09.06.2.09.34.09s.24-.03.33-.09Z"/>
    <path class="d" d="M30.69,67.91l.23-.03c.06-.01.1-.03.12-.06.02-.03.03-.08.03-.14v-1.26c0-.06-.01-.1-.04-.13s-.06-.05-.12-.06l-.23-.03v-.2l.83-.1-.02.56h.04c.08-.11.17-.21.28-.3s.21-.17.32-.23h.3v.5h-.37c-.08,0-.17.03-.26.08-.09.05-.18.13-.26.22v.95c0,.07.01.12.03.15.02.03.06.05.11.05l.31.04v.22h-1.3v-.22Z"/>
  </g>
  <g>
    <path class="h" d="M59.16,50.15c-.27.67-.58,1.11-.83,1.39-.14.16-.36.39-.5.76-.11.28-.13.54-.13.72-.06.21-.18.75.03,1.36.13.36.32.62.46.77-.05-.25-.08-.58-.04-.96.02-.21.06-.4.1-.56.08.04.29.13.46.04.08-.04.17-.14.25-.55.04-.22.09-.52.08-.89.09-.23.32-.73.84-1.11.3-.22.59-.33.8-.39-.04.21-.13.5-.36.75-.1.1-.15.13-.22.22-.13.16-.26.43-.21.95-.03.26-.05.86.32,1.42.11.16.22.29.33.39-.06-.13-.14-.33-.18-.57-.05-.33,0-.6.04-.77.08.03.27.08.43,0,.26-.13.39-.53.22-.97.14-.2.34-.44.61-.69.31-.28.62-.47.86-.6.32-.06.65-.12.97-.18.26-.05.51-.09.76-.14.68.16,1.37.32,2.05.47.21.04.57.14.93.42.2.16.35.33.44.46,0-.2-.03-.53-.19-.9-.2-.45-.49-.73-.65-.86-.2.02-.48.02-.79-.05-.31-.06-.56-.16-.74-.25.79-.14,1.58-.28,2.38-.42l-.44-1.01-1.03-.17c-.09.03-3.43.78-3.43.78-.76.08-1.41.15-1.89.2-.6.06-.85.08-1.17.1-.6.03-1.1.03-1.45.01-.32.24-.64.49-.97.73-.11.12-.38.44-.44.94-.05.37.04.66.1.81-.01-.05-.09-.38.1-.69.15-.23.36-.31.43-.34.12,0,.34-.02.59-.15.3-.15.45-.38.52-.49.18,0,.37-.01.55-.02.88-.3,1.76-.59,2.64-.89"/>
    <path class="h" d="M75.74,50.71c-.51.61-1.13,1.28-1.86,1.96-.75.69-1.48,1.26-2.14,1.73-.67.37-1.5.76-2.49,1.07-.56.17-1.08.3-1.56.39-.33.35-.66.7-1,1.04-.1.11-.33.37-.41.78-.11.53.09.95.16,1.07-.01-.15-.02-.47.16-.8.09-.16.19-.28.27-.36.11.04.25.06.41.02.33-.09.57-.43.61-.87.75-.22,1.5-.43,2.25-.65-.52.49-1.05.98-1.57,1.46-.3.84-.59,1.68-.89,2.52-.06.19-.17.6-.07,1.1.11.58.44.94.57,1.09-.07-.25-.15-.63-.11-1.08.02-.21.06-.4.11-.55.19.13.3.12.36.1.28-.07.47-.6.39-1.32.18-.39.43-.84.78-1.3.57-.76,1.19-1.28,1.67-1.61-.23.58-.46,1.16-.69,1.74l.02,1.75c-.01.13-.07.8.4,1.28.14.14.28.22.41.28-.08-.12-.21-.34-.27-.63-.06-.31-.03-.57,0-.72.04,0,.1.02.17,0,.12-.04.21-.17.22-.33-.04-.33-.05-.81.09-1.36.08-.3.18-.55.28-.75.23-.41.46-.83.7-1.24.35-.18.69-.37,1.04-.55l2.17.28.43.28c.09.03.17.05.26.08.05,0,.12.03.19.07.2.11.28.3.3.37.03-.08.14-.37.03-.71-.12-.38-.41-.56-.48-.6-.02-.07-.06-.17-.14-.27-.15-.18-.33-.24-.41-.27-.45-.04-.89-.08-1.34-.12-.05-.02-.19-.08-.29-.23-.14-.24-.04-.49-.03-.51,1.22-.97,2.44-1.95,3.67-2.92l-2.39-.67Z"/>
    <path class="i" d="M51.14,14.14c-.24-.16-.65-.49-.93-1.05-.12-.24-.19-.47-.22-.65.26.15.51.31.77.46-.24-.23-.57-.61-.85-1.15-.29-.58-.4-1.12-.44-1.46l.8.62c-.25-.36-.61-.98-.8-1.83-.21-.95-.1-1.74,0-2.18.15.09.31.17.46.26,0-.35.04-.9.27-1.52.19-.51.45-.9.65-1.15.07.17.14.34.21.51.05-.25.14-.57.33-.92.3-.57.7-.94.96-1.14v.67c.31-.54,1.04-1.65,2.43-2.44.94-.53,1.82-.72,2.39-.79-.15.22-.31.44-.46.67.6-.33,1.55-.76,2.79-.95,1.02-.16,1.89-.09,2.51,0-.05.07-.11.14-.16.21.45-.11,1.16-.23,2.02-.13.8.09,1.42.33,1.82.52-.15.09-.31.17-.46.26.36-.03.96-.03,1.66.19.63.2,1.09.51,1.37.73-.48.03-.96.07-1.44.1.54-.02,1.42.03,2.38.44.45.19.82.43,1.11.64-.43-.03-.86-.07-1.28-.1.45.06,1.17.2,1.94.64.6.34,1.02.75,1.29,1.05-.3-.02-.6-.05-.9-.07.37.21.8.5,1.24.89.37.33.67.65.91.94-.45-.13-.91-.27-1.36-.4.4.19.87.46,1.34.82.87.66,1.44,1.38,1.8,1.93-.74-.41-1.47-.82-2.21-1.23-.02,0,.98.44,1.71,1.37.56.71.78,1.49.88,2.09-.48-.45-.97-.91-1.45-1.36.43.39,1.08,1.08,1.52,2.12.24.57.36,1.09.42,1.51-.86-1.02-1.71-2.04-2.57-3.06.5.31,1.68,1.16,2.26,2.73.23.63.3,1.2.31,1.64-.69-.71-1.37-1.41-2.06-2.12.31.18,1.34.85,1.64,2.09.08.33.09.63.07.88-.69-.82-1.38-1.64-2.07-2.46.15.08,1.66.9,1.7,2.26,0,.19-.01.43-.11.71-.62-.63-1.23-1.27-1.85-1.9.36.3.81.76,1.14,1.42.08.16.15.32.2.47-.63-.41-1.2-.66-1.6-.8-.81-.3-2.3-.84-3.68-.21-.27.12-.47.26-.6.36.31.59.72,1.26,1.29,1.94.29.35.57.65.85.92h-.46c.21.23.5.5.86.74.17.11.33.21.48.29h-.67c.63.52,1.26,1.04,1.89,1.57-.2-.06-.41-.14-.63-.24-.33-.15-.61-.3-.85-.46-.02-.01,1.14.93,2.8,1.99,2.14,1.38,2.48,1.32,4.14,2.35,1.13.7,3.12,1.96,4.92,4.11,1.32,1.58,2.37,3.44,2.18,3.59-.13.1-.86-.6-1.49-1.27.34.31.85.85,1.24,1.66.42.86.51,1.64.54,2.1-.32-.62-.65-1.23-.97-1.85.01.04.1.29-.04.54-.12.22-.37.34-.63.33-.24-.36-.48-.72-.72-1.08-.4.08-.89.11-1.42,0-2.08-.44-2.95-2.72-3.05-2.98.21.55.41,1.09.62,1.64-.38-.11-.93-.33-1.5-.76-.81-.62-1.23-1.35-1.42-1.76.14.41.27.82.41,1.23-.37-.12-1.07-.41-1.62-1.1-.18-.22-.3-.44-.39-.64-.06,0-.46.04-.79-.26-.31-.28-.33-.65-.33-.72-.2,0-.44,0-.7-.06-.85-.17-1.43-.64-1.71-.92l1.44,1.33c-.32-.24-.87-.58-1.63-.78-.92-.23-1.69-.13-2.1-.05-.23.09-.63.27-1,.64-.44.44-.62.91-.7,1.15.22.32.44.65.67.97-.04.16-.12.22-.15.23-.18.1-.5-.03-.75-.37.25.53.5,1.05.74,1.58.03.12.12.45.03.5-.11.06-.42-.37-.47-.43.25.9.5,1.8.75,2.7l-1.18-.87c.24.47.53.97.89,1.5.21.3.42.58.63.84-.39-.28-.77-.57-1.16-.85.09.23.2.48.35.75.17.31.36.58.53.79-.29-.1-.58-.21-.87-.31.18.12.61.46.82,1.07.11.31.12.59.11.78-.31-.15-.62-.31-.92-.46.08.19.18.46.22.8.04.29.02.54,0,.73-.42-.43-.83-.85-1.25-1.28.17.3.41.83.44,1.52.02.35-.02.65-.07.88-.39-.35-.79-.71-1.18-1.06.05.23.11.61.02,1.06-.13.68-.51,1.12-.69,1.3-.06-.36-.31-.66-.64-.76-.37-.11-.69.06-.74.09.07.49.14.98.2,1.48-.67-.37-1.33-.74-2-1.12.18.12.51.38.74.85.17.34.22.65.23.84-.29.01-.63,0-1.01-.07-1.19-.22-1.99-.89-2.38-1.27.38.68.75,1.37,1.13,2.05-.37-.1-1.21-.39-1.87-1.19-.3-.37-.48-.73-.59-1.02-.07.43-.14.86-.21,1.28-.3-.24-.6-.5-.91-.77-.43-.38-.83-.76-1.2-1.13l.21.67c-.29-.11-.62-.27-.95-.5-1.03-.72-1.48-1.72-1.67-2.22-.02.26-.03.51-.05.77-.34-.49-.68-1.09-.97-1.79-.93-2.29-.72-4.41-.52-5.55l-.56,3.45c-.17-.77-.31-1.77-.28-2.94.02-1.01.17-1.88.33-2.56-.15.55-.31,1.09-.46,1.64-.13-.6-.28-1.7.03-3.01.26-1.13.76-1.96,1.1-2.43-.24.14-.48.27-.72.41.27-.52.54-1.11.8-1.77.29-.75.49-1.45.64-2.07-.16.17-.32.35-.48.52-.08-.23-.17-.47-.25-.7-.1.06-.2.13-.3.19.07-.27.16-.58.3-.91.12-.28.25-.53.37-.74-.15.16-.35.22-.52.16-.1-.04-.17-.12-.2-.16.12-.23.26-.55.34-.97.11-.59.03-1.09-.04-1.38.85,0,1.7.01,2.55.02,0-.09,0-.72.52-1.17.58-.5,1.28-.33,1.35-.32-.45-.49-.89-.78-1.19-.94-.36-.19-1.07-.57-1.98-.55-.4,0-.78.09-.84-.06-.05-.1.08-.27.22-.41-.19-.13-.43-.26-.71-.39-.34-.15-.65-.24-.91-.3Z"/>
    <path class="c" d="M68.07,27.82c.13-.25.55-.95,1.38-1.24.57-.2,1.07-.12,1.54-.03.43.07,1.16.26,1.95.82-.85-.74-1-.93-.98-.97.04-.05.46.27,1.16.52.42.15.79.22,1.04.26.03.11.12.4.39.65.29.27.62.31.73.33.15.26.38.6.73.93.43.41.87.64,1.17.77-.09-.38-.18-.76-.27-1.14.18.36.53.98,1.2,1.54.66.55,1.31.8,1.7.92-.21-.55-.41-1.09-.62-1.64.11.33.59,1.66,2,2.45,1.05.59,2.06.56,2.47.53.22.34.45.67.67,1.01.05,0,.31-.01.52-.23.22-.24.2-.53.2-.57.19.31.38.64.57,1.01.15.29.28.57.4.84-.26-.89-.52-1.78-.78-2.67.33.41.72.89,1.09,1.35,1.99,2.46,2.03,2.49,2.3,2.86,2.38,3.2,2.01,4.01,1.89,4.21-.05.09-.1.15-.14.18.29.36.71.96.98,1.81.25.78.29,1.46.27,1.91.38,1.17.49,1.8.33,1.87-.04.02-.11,0-.2-.07.08.24.22.78,0,1.37-.05.15-.12.27-.19.38.06.09.13.22.17.4.06.23.04.42.02.53.06.1.15.24.25.41.37.61.42.71.45.82.06.18.13.45.09.82.16.16.39.44.47.83.02.12.13.67-.13.81-.18.1-.44-.05-.5-.09-.76-.34-1.54-.69-2.32-1.07-.17-.08-.33-.16-.5-.24-2.64-.97-4.84-1.87-6.53-2.59-4.46-1.91-5.91-2.84-7.01-3.65-1.41-1.04-2.46-2.06-3.14-2.8-1.41-1.57-2.82-3.13-4.23-4.7-.02-.22-.08-.63-.35-1.06-.31-.5-.72-.75-.91-.85.35.15.7.3,1.05.45l-.77-1.74.9.69-1.2-1.93c.36.23.71.45,1.07.68-.26-1-.51-1.99-.77-2.99l.4.8c.07.04.15.08.19.05.08-.07-.08-.39-.17-.6-.15-.32-.36-.79-.59-1.4.16.25.42.37.62.3.04-.01.13-.05.2-.16-.2-.32-.39-.65-.59-.97l.32-.69Z"/>
    <path class="f" d="M56.97,41.08c.35.88.76,1.51,1.09,1.94,0,0,.21.28,1.42,1.58l-.34-.92c.19.38.53.97,1.16,1.48.3.25.59.42.85.54-.07-.25-.15-.51-.22-.76.17.29.43.67.85,1.05.35.32.7.54.98.68-.04-.18-.07-.36-.11-.54.38.44,1.1,1.12,2.2,1.54.48.18.92.28,1.29.32.03.1.13.43.46.67.27.2.55.23.66.23.15.18.3.36.46.54.11.02.23.04.36.04.23.01.44-.01.6-.04-.05.07-.1.15-.16.22.08-.04.41-.17.74-.03.09.04.17.09.22.14.07-.09.17-.21.31-.31.19-.15.38-.24.51-.3.11.09.31.22.6.3.23.06.42.05.55.04-.07-.11-.15-.22-.22-.34.24.13.52.25.83.37.75.27,1.44.37,1.98.4.16.06.51.22.8.58.28.34.38.69.41.86.15-.16.3-.33.45-.49l.27.79.13-.27.34.13.16-.16.47.29.29-.31.25.56c.15-.05.3-.11.44-.16.04.05.08.11.12.16.38-.29.75-.58,1.13-.87.06.02.12.04.18.06.07-.13.14-.27.21-.4.03.05.07.1.1.16.29.22.68.46,1.16.68.43.19.83.31,1.16.38,1.01,3.22,2.21,6.55,3.61,9.98.39.94.78,1.87,1.18,2.77,2.77,2.74,5.55,5.47,8.32,8.21.62.46,1.45.51,2.1.14.72-.41,1.09-1.28.9-2.12-.53-1.93-1.15-3.93-1.86-5.99-1.76-5.07-3.78-9.57-5.84-13.49-.18-.12-.47-.3-.83-.47-.56-.26-.95-.36-1.4-.51-.56-.18-.8-.3-1.71-.7-2.08-.9-2.84-1.13-4.69-1.95-2.28-1.02-3.56-1.58-5.16-2.67-1.41-.96-2.4-1.86-2.69-2.14-1.1-1.02-1.56-1.66-3.27-3.53-.87-.95-1.59-1.71-2.06-2.2-.15,0-.34-.02-.53-.12-.3-.17-.39-.47-.44-.45-.06.02.07.4.15.84.08.39.1.72.11.94-.43-.49-.86-.98-1.3-1.48.13.28.27.69.35,1.19.07.5.05.93.01,1.24-.4-.35-.79-.7-1.19-1.05.06.2.18.65.04,1.2-.15.64-.55,1.02-.7,1.15-.01-.05-.11-.42-.48-.59-.29-.13-.63-.09-.89.11.08.45.15.9.23,1.36l-1.95-.99c.2.16.55.48.75,1.02.08.21.11.4.12.56-.37.02-.91,0-1.51-.2-1.15-.37-1.83-1.14-2.11-1.49.25.51.53,1.04.83,1.58.14.25.28.5.42.74-.29-.1-.67-.27-1.06-.56-.77-.57-1.12-1.3-1.27-1.67-.07.48-.15.95-.22,1.43l-1.07-.92Z"/>
    <path class="g" d="M48.65,18.35c.05-.52.21-1.38.71-2.32.55-1.01,1.25-1.63,1.68-1.96.37.13.76.29,1.16.48.17.08.34.16.5.24-.1.18-.2.37-.3.55.42-.07,1.35-.16,2.41.24.89.34,1.46.89,1.75,1.2-.07-.02-.77-.18-1.35.32-.52.45-.52,1.09-.52,1.17-.46-.03-.95-.05-1.46-.05-.42,0-.83.01-1.22.03-.54-.12-1.12-.23-1.72-.32-.31-.05-.62-.09-.92-.12-.24.18-.48.36-.71.53Z"/>
    <circle class="b" cx="59.66" cy="14.56" r="1.7"/>
    <path class="b" d="M57.95,14.56l-.43.71c.09,0,.29,0,.5.11.19.1.3.23.35.31"/>
    <circle class="c" cx="59.65" cy="14.58" r=".94"/>
  </g>
</svg>